<svg xmlns="http://www.w3.org/2000/svg" width="360" height="800" viewBox="0 0 360 800"><title>11 · Inicio · cargando (skeleton)</title><style>@import url('https://fonts.googleapis.com/css2?family=Bricolage+Grotesque:wght@600;700;800&amp;family=DM+Sans:wght@400;500;600;700&amp;family=JetBrains+Mono:wght@700&amp;display=swap');</style><rect width="360" height="800" fill="#F7F3EC"/><g id="Status bar"><text x="24" y="17" font-family="DM Sans, sans-serif" font-size="13" font-weight="600" fill="#16211C" text-anchor="start">9:41</text><rect x="290" y="10" width="2.5" height="4" rx="1" fill="#16211C"/><rect x="294" y="8" width="2.5" height="6" rx="1" fill="#16211C"/><rect x="298" y="6" width="2.5" height="8" rx="1" fill="#16211C"/><rect x="302" y="4" width="2.5" height="10" rx="1" fill="#16211C"/><g transform="translate(306 3) scale(0.5833)" fill="none" stroke="#16211C" stroke-width="2.4" stroke-linecap="round" stroke-linejoin="round"><path d="M2.5 9a14 14 0 0 1 19 0M5.5 12.5a9.5 9.5 0 0 1 13 0M8.8 16a5 5 0 0 1 6.4 0"/><circle cx="12" cy="19.2" r=".6" fill="#16211C"/></g><rect x="324" y="6" width="20" height="10" rx="3" fill="none" stroke="#16211C" stroke-width="1.4"/><rect x="326" y="8" width="13" height="6" rx="1.5" fill="#16211C"/></g><g id="Top bar"><g id="Logo"><circle cx="36" cy="52" r="14" fill="#E4F56A"/><rect x="30.400000000000002" y="46.26" width="2.8000000000000003" height="11.479999999999999" rx="1.4000000000000001" fill="#0B3B2C"/><rect x="38.800000000000004" y="46.26" width="2.8000000000000003" height="11.479999999999999" rx="1.4000000000000001" fill="#0B3B2C"/></g><text x="58" y="59" font-family="Bricolage Grotesque, sans-serif" font-size="20" font-weight="800" fill="#0B3B2C" text-anchor="start" letter-spacing="-0.5">take a break</text><circle cx="316" cy="52" r="20" fill="#FFD3F2"/><text x="316" y="58" font-family="DM Sans, sans-serif" font-size="16" font-weight="700" fill="#6A1B54" text-anchor="middle">M</text></g><rect x="20" y="88" width="320" height="156" rx="28" fill="#0B3B2C"/><rect x="40" y="112" width="80" height="12" rx="6" fill="#2A5A48"/><rect x="40" y="142" width="150" height="48" rx="12" fill="#2A5A48"/><rect x="40" y="210" width="180" height="12" rx="6" fill="#2A5A48"/><circle cx="282" cy="170" r="34" fill="none" stroke="#2A5A48" stroke-width="8"/><rect x="20" y="256" width="320" height="104" rx="24" fill="#FFFFFF" stroke="#E7E1D6" stroke-width="1"/><rect x="36" y="272" width="40" height="40" rx="12" fill="#ECE6DA"/><rect x="88" y="276" width="90" height="10" rx="5" fill="#ECE6DA"/><rect x="88" y="294" width="180" height="12" rx="6" fill="#ECE6DA"/><rect x="36" y="326" width="288" height="10" rx="5" fill="#ECE6DA"/><rect x="36" y="344" width="120" height="8" rx="4" fill="#ECE6DA"/><rect x="20" y="372" width="154" height="72" rx="20" fill="#ECE6DA"/><rect x="186" y="372" width="154" height="72" rx="20" fill="#ECE6DA"/><rect x="20" y="470" width="140" height="16" rx="8" fill="#ECE6DA"/><rect x="20" y="500" width="320" height="72" rx="20" fill="#FFFFFF" stroke="#E7E1D6" stroke-width="1"/><rect x="32" y="512" width="48" height="48" rx="16" fill="#ECE6DA"/><rect x="92" y="522" width="140" height="12" rx="6" fill="#ECE6DA"/><rect x="92" y="542" width="100" height="10" rx="5" fill="#ECE6DA"/><rect x="270" y="522" width="58" height="28" rx="14" fill="#ECE6DA"/><rect x="20" y="580" width="320" height="72" rx="20" fill="#FFFFFF" stroke="#E7E1D6" stroke-width="1"/><rect x="32" y="592" width="48" height="48" rx="16" fill="#ECE6DA"/><rect x="92" y="602" width="140" height="12" rx="6" fill="#ECE6DA"/><rect x="92" y="622" width="100" height="10" rx="5" fill="#ECE6DA"/><rect x="270" y="602" width="58" height="28" rx="14" fill="#ECE6DA"/><g id="Bottom navigation"><rect x="0" y="720" width="360" height="80" rx="0" fill="#FFFFFF"/><line x1="0" y1="720" x2="360" y2="720" stroke="#E7E1D6" stroke-width="1" stroke-linecap="round"/><rect x="28" y="730" width="64" height="32" rx="16" fill="#E4F56A"/><g transform="translate(48 734) scale(1.0000)" fill="none" stroke="#0B3B2C" stroke-width="2" stroke-linecap="round" stroke-linejoin="round"><path d="M4 10.5 12 4l8 6.5V19a1 1 0 0 1-1 1h-4.5v-5.5h-5V20H5a1 1 0 0 1-1-1z"/></g><text x="60" y="780" font-family="DM Sans, sans-serif" font-size="12" font-weight="700" fill="#0B3B2C" text-anchor="middle">Inicio</text><g transform="translate(168 734) scale(1.0000)" fill="none" stroke="#5F6B64" stroke-width="2" stroke-linecap="round" stroke-linejoin="round"><path d="M12 21s-6.5-5.8-6.5-11a6.5 6.5 0 0 1 13 0c0 5.2-6.5 11-6.5 11z"/><circle cx="12" cy="10" r="2.4"/></g><text x="180" y="780" font-family="DM Sans, sans-serif" font-size="12" font-weight="500" fill="#5F6B64" text-anchor="middle">Explorar</text><g transform="translate(288 734) scale(1.0000)" fill="none" stroke="#5F6B64" stroke-width="2" stroke-linecap="round" stroke-linejoin="round"><path d="M5 19v-6M10 19V6M15 19v-4M20 19V9"/></g><text x="300" y="780" font-family="DM Sans, sans-serif" font-size="12" font-weight="500" fill="#5F6B64" text-anchor="middle">Actividad</text><rect x="140" y="788" width="80" height="4" rx="2" fill="#16211C" opacity="0.35"/></g></svg>