<svg xmlns="http://www.w3.org/2000/svg" width="360" height="800" viewBox="0 0 360 800"><title>15 · Explorar · sin conexión (catálogo guardado)</title><style>@import url('https://fonts.googleapis.com/css2?family=Bricolage+Grotesque:wght@600;700;800&amp;family=DM+Sans:wght@400;500;600;700&amp;family=JetBrains+Mono:wght@700&amp;display=swap');</style><rect width="360" height="800" fill="#F7F3EC"/><g id="Status bar"><text x="24" y="17" font-family="DM Sans, sans-serif" font-size="13" font-weight="600" fill="#16211C" text-anchor="start">9:41</text><rect x="290" y="10" width="2.5" height="4" rx="1" fill="#16211C"/><rect x="294" y="8" width="2.5" height="6" rx="1" fill="#16211C"/><rect x="298" y="6" width="2.5" height="8" rx="1" fill="#16211C"/><rect x="302" y="4" width="2.5" height="10" rx="1" fill="#16211C"/><g transform="translate(306 3) scale(0.5833)" fill="none" stroke="#16211C" stroke-width="2.4" stroke-linecap="round" stroke-linejoin="round"><path d="M2.5 9a14 14 0 0 1 19 0M5.5 12.5a9.5 9.5 0 0 1 13 0M8.8 16a5 5 0 0 1 6.4 0"/><circle cx="12" cy="19.2" r=".6" fill="#16211C"/></g><rect x="324" y="6" width="20" height="10" rx="3" fill="none" stroke="#16211C" stroke-width="1.4"/><rect x="326" y="8" width="13" height="6" rx="1.5" fill="#16211C"/></g><text x="20" y="76" font-family="Bricolage Grotesque, sans-serif" font-size="28" font-weight="800" fill="#16211C" text-anchor="start">Explorar</text><g id="Banner"><rect x="20" y="96" width="320" height="44" rx="14" fill="#FFF3D6"/><g transform="translate(34 108.0) scale(0.8333)" fill="none" stroke="#6B4A0E" stroke-width="2" stroke-linecap="round" stroke-linejoin="round"><path d="M7.5 18.5h9.5a3.8 3.8 0 0 0 1.3-7.4 6 6 0 0 0-10.9-2.4A4.9 4.9 0 0 0 7.5 18.5z"/><path d="M3.5 3.5l17 17"/></g><text x="64" y="123.0" font-family="DM Sans, sans-serif" font-size="13" font-weight="600" fill="#6B4A0E" text-anchor="start">Sin conexión · mostramos lo guardado</text></g><g id="Mapa no disponible"><rect x="20" y="152" width="320" height="132" rx="24" fill="#EAE4D6"/><g transform="translate(160 176) scale(1.6667)" fill="none" stroke="#5F6B64" stroke-width="1.8" stroke-linecap="round" stroke-linejoin="round"><path d="M7.5 18.5h9.5a3.8 3.8 0 0 0 1.3-7.4 6 6 0 0 0-10.9-2.4A4.9 4.9 0 0 0 7.5 18.5z"/><path d="M3.5 3.5l17 17"/></g><text x="180" y="244" font-family="DM Sans, sans-serif" font-size="15" font-weight="700" fill="#16211C" text-anchor="middle">El mapa necesita conexión</text><text x="180" y="264" font-family="DM Sans, sans-serif" font-size="13" font-weight="400" fill="#5F6B64" text-anchor="middle">La lista funciona igual</text></g><text x="20" y="318" font-family="Bricolage Grotesque, sans-serif" font-size="14" font-weight="800" fill="#16211C" text-anchor="start">Todos los comercios · A–Z</text><text x="340" y="318" font-family="DM Sans, sans-serif" font-size="12" font-weight="500" fill="#5F6B64" text-anchor="end">Actualizado 10:42</text><g id="Reward row/Bosque Libros"><rect x="20" y="332" width="320" height="72" rx="20" fill="#FFFFFF" stroke="#E7E1D6" stroke-width="1"/><rect x="32" y="344.0" width="48" height="48" rx="16" fill="#FFEBC2"/><g transform="translate(44.0 356.0) scale(1.0000)" fill="none" stroke="#6B4A0E" stroke-width="2" stroke-linecap="round" stroke-linejoin="round"><path d="M5 19.5v-14A2.5 2.5 0 0 1 7.5 3H19v14H7.5A2.5 2.5 0 0 0 5 19.5 2.5 2.5 0 0 0 7.5 22H19"/></g><text x="92" y="365.0" font-family="DM Sans, sans-serif" font-size="15" font-weight="700" fill="#16211C" text-anchor="start">15% off en libros</text><text x="92" y="384.0" font-family="DM Sans, sans-serif" font-size="13" font-weight="400" fill="#5F6B64" text-anchor="start">Bosque Libros · Palermo</text><g id="Chip"><rect x="253.04" y="354.0" width="74.96000000000001" height="28" rx="14.0" fill="#E4F56A"/><text x="265.03999999999996" y="372.55" font-family="DM Sans, sans-serif" font-size="13" font-weight="700" fill="#0B3B2C" text-anchor="start">300 pts</text></g></g><g id="Reward row/Casa Ombú"><rect x="20" y="412" width="320" height="72" rx="20" fill="#FFFFFF" stroke="#E7E1D6" stroke-width="1"/><rect x="32" y="424.0" width="48" height="48" rx="16" fill="#ECE3FF"/><g transform="translate(44.0 436.0) scale(1.0000)" fill="none" stroke="#4B2E83" stroke-width="2" stroke-linecap="round" stroke-linejoin="round"><path d="M4 9h12v4.5A5.5 5.5 0 0 1 10.5 19h-1A5.5 5.5 0 0 1 4 13.5z"/><path d="M16 10.5h1.5a2.5 2.5 0 0 1 0 5H16"/><path d="M8 3.5V6M12 3.5V6"/></g><text x="92" y="445.0" font-family="DM Sans, sans-serif" font-size="15" font-weight="700" fill="#16211C" text-anchor="start">Brunch para dos</text><text x="92" y="464.0" font-family="DM Sans, sans-serif" font-size="13" font-weight="400" fill="#5F6B64" text-anchor="start">Casa Ombú · Belgrano</text><g id="Chip"><rect x="253.04" y="434.0" width="74.96000000000001" height="28" rx="14.0" fill="#FFFFFF" stroke="#E7E1D6" stroke-width="1"/><text x="265.03999999999996" y="452.55" font-family="DM Sans, sans-serif" font-size="13" font-weight="700" fill="#5F6B64" text-anchor="start">600 pts</text></g></g><g id="Reward row/Cuervo Café"><rect x="20" y="492" width="320" height="72" rx="20" fill="#FFFFFF" stroke="#E7E1D6" stroke-width="1"/><rect x="32" y="504.0" width="48" height="48" rx="16" fill="#FFD3F2"/><g transform="translate(44.0 516.0) scale(1.0000)" fill="none" stroke="#6A1B54" stroke-width="2" stroke-linecap="round" stroke-linejoin="round"><path d="M4 9h12v4.5A5.5 5.5 0 0 1 10.5 19h-1A5.5 5.5 0 0 1 4 13.5z"/><path d="M16 10.5h1.5a2.5 2.5 0 0 1 0 5H16"/><path d="M8 3.5V6M12 3.5V6"/></g><text x="92" y="525.0" font-family="DM Sans, sans-serif" font-size="15" font-weight="700" fill="#16211C" text-anchor="start">Café + medialuna</text><text x="92" y="544.0" font-family="DM Sans, sans-serif" font-size="13" font-weight="400" fill="#5F6B64" text-anchor="start">Cuervo Café · Palermo</text><g id="Chip"><rect x="253.04" y="514.0" width="74.96000000000001" height="28" rx="14.0" fill="#E4F56A"/><text x="265.03999999999996" y="532.55" font-family="DM Sans, sans-serif" font-size="13" font-weight="700" fill="#0B3B2C" text-anchor="start">120 pts</text></g></g><g id="Reward row/Estudio Prana"><rect x="20" y="572" width="320" height="72" rx="20" fill="#FFFFFF" stroke="#E7E1D6" stroke-width="1"/><rect x="32" y="584.0" width="48" height="48" rx="16" fill="#DDF2E6"/><g transform="translate(44.0 596.0) scale(1.0000)" fill="none" stroke="#136B4A" stroke-width="2" stroke-linecap="round" stroke-linejoin="round"><path d="M5 19C5 10 11 5 20 4c0 9-5 15-13.5 15z"/><path d="M5 19l8-8"/></g><text x="92" y="605.0" font-family="DM Sans, sans-serif" font-size="15" font-weight="700" fill="#16211C" text-anchor="start">Clase de yoga</text><text x="92" y="624.0" font-family="DM Sans, sans-serif" font-size="13" font-weight="400" fill="#5F6B64" text-anchor="start">Estudio Prana · Chacarita</text><g id="Chip"><rect x="253.04" y="594.0" width="74.96000000000001" height="28" rx="14.0" fill="#FFFFFF" stroke="#E7E1D6" stroke-width="1"/><text x="265.03999999999996" y="612.55" font-family="DM Sans, sans-serif" font-size="13" font-weight="700" fill="#5F6B64" text-anchor="start">400 pts</text></g></g><clipPath id="s15-c"><rect x="0" y="652" width="360" height="68"/></clipPath><g clip-path="url(#s15-c)"><g id="Reward row/Heladería Nube"><rect x="20" y="652" width="320" height="72" rx="20" fill="#FFFFFF" stroke="#E7E1D6" stroke-width="1"/><rect x="32" y="664.0" width="48" height="48" rx="16" fill="#DCEBFF"/><g transform="translate(44.0 676.0) scale(1.0000)" fill="none" stroke="#1E3A6B" stroke-width="2" stroke-linecap="round" stroke-linejoin="round"><path d="M7.5 11a4.5 4.5 0 1 1 9 0z"/><path d="M8 11l4 10 4-10"/></g><text x="92" y="685.0" font-family="DM Sans, sans-serif" font-size="15" font-weight="700" fill="#16211C" text-anchor="start">Cucurucho doble</text><text x="92" y="704.0" font-family="DM Sans, sans-serif" font-size="13" font-weight="400" fill="#5F6B64" text-anchor="start">Heladería Nube · Villa Crespo</text><g id="Chip"><rect x="253.04" y="674.0" width="74.96000000000001" height="28" rx="14.0" fill="#E4F56A"/><text x="265.03999999999996" y="692.55" font-family="DM Sans, sans-serif" font-size="13" font-weight="700" fill="#0B3B2C" text-anchor="start">150 pts</text></g></g></g><g id="Bottom navigation"><rect x="0" y="720" width="360" height="80" rx="0" fill="#FFFFFF"/><line x1="0" y1="720" x2="360" y2="720" stroke="#E7E1D6" stroke-width="1" stroke-linecap="round"/><g transform="translate(48 734) scale(1.0000)" fill="none" stroke="#5F6B64" stroke-width="2" stroke-linecap="round" stroke-linejoin="round"><path d="M4 10.5 12 4l8 6.5V19a1 1 0 0 1-1 1h-4.5v-5.5h-5V20H5a1 1 0 0 1-1-1z"/></g><text x="60" y="780" font-family="DM Sans, sans-serif" font-size="12" font-weight="500" fill="#5F6B64" text-anchor="middle">Inicio</text><rect x="148" y="730" width="64" height="32" rx="16" fill="#E4F56A"/><g transform="translate(168 734) scale(1.0000)" fill="none" stroke="#0B3B2C" stroke-width="2" stroke-linecap="round" stroke-linejoin="round"><path d="M12 21s-6.5-5.8-6.5-11a6.5 6.5 0 0 1 13 0c0 5.2-6.5 11-6.5 11z"/><circle cx="12" cy="10" r="2.4"/></g><text x="180" y="780" font-family="DM Sans, sans-serif" font-size="12" font-weight="700" fill="#0B3B2C" text-anchor="middle">Explorar</text><g transform="translate(288 734) scale(1.0000)" fill="none" stroke="#5F6B64" stroke-width="2" stroke-linecap="round" stroke-linejoin="round"><path d="M5 19v-6M10 19V6M15 19v-4M20 19V9"/></g><text x="300" y="780" font-family="DM Sans, sans-serif" font-size="12" font-weight="500" fill="#5F6B64" text-anchor="middle">Actividad</text><rect x="140" y="788" width="80" height="4" rx="2" fill="#16211C" opacity="0.35"/></g></svg>