<svg xmlns="http://www.w3.org/2000/svg" width="360" height="800" viewBox="0 0 360 800"><title>26 · Mis canjes · activo, pendiente e historial</title><style>@import url('https://fonts.googleapis.com/css2?family=Bricolage+Grotesque:wght@600;700;800&amp;family=DM+Sans:wght@400;500;600;700&amp;family=JetBrains+Mono:wght@700&amp;display=swap');</style><rect width="360" height="800" fill="#F7F3EC"/><g id="Status bar"><text x="24" y="17" font-family="DM Sans, sans-serif" font-size="13" font-weight="600" fill="#16211C" text-anchor="start">9:41</text><rect x="290" y="10" width="2.5" height="4" rx="1" fill="#16211C"/><rect x="294" y="8" width="2.5" height="6" rx="1" fill="#16211C"/><rect x="298" y="6" width="2.5" height="8" rx="1" fill="#16211C"/><rect x="302" y="4" width="2.5" height="10" rx="1" fill="#16211C"/><g transform="translate(306 3) scale(0.5833)" fill="none" stroke="#16211C" stroke-width="2.4" stroke-linecap="round" stroke-linejoin="round"><path d="M2.5 9a14 14 0 0 1 19 0M5.5 12.5a9.5 9.5 0 0 1 13 0M8.8 16a5 5 0 0 1 6.4 0"/><circle cx="12" cy="19.2" r=".6" fill="#16211C"/></g><rect x="324" y="6" width="20" height="10" rx="3" fill="none" stroke="#16211C" stroke-width="1.4"/><rect x="326" y="8" width="13" height="6" rx="1.5" fill="#16211C"/></g><g id="Top bar"><circle cx="44" cy="56" r="24" fill="none"/><g transform="translate(32 44) scale(1.0000)" fill="none" stroke="#16211C" stroke-width="2" stroke-linecap="round" stroke-linejoin="round"><path d="M19 12H5M11 6l-6 6 6 6"/></g><text x="80" y="63" font-family="Bricolage Grotesque, sans-serif" font-size="22" font-weight="800" fill="#16211C" text-anchor="start">Mis canjes</text></g><text x="20" y="112" font-family="DM Sans, sans-serif" font-size="12" font-weight="800" fill="#5F6B64" text-anchor="start" letter-spacing="1">ACTIVOS</text><g id="Canje activo"><rect x="20" y="124" width="320" height="132" rx="24" fill="#0B3B2C"/><rect x="36" y="140" width="40" height="40" rx="12" fill="#FFD3F2"/><g transform="translate(46.0 150.0) scale(0.8333)" fill="none" stroke="#6A1B54" stroke-width="2" stroke-linecap="round" stroke-linejoin="round"><path d="M4 9h12v4.5A5.5 5.5 0 0 1 10.5 19h-1A5.5 5.5 0 0 1 4 13.5z"/><path d="M16 10.5h1.5a2.5 2.5 0 0 1 0 5H16"/><path d="M8 3.5V6M12 3.5V6"/></g><text x="88" y="156" font-family="DM Sans, sans-serif" font-size="15" font-weight="700" fill="#FFFFFF" text-anchor="start">Café + medialuna</text><text x="88" y="174" font-family="DM Sans, sans-serif" font-size="12" font-weight="500" fill="#FFFFFF" text-anchor="start" opacity="0.7">Cuervo Café · vence en 08:12</text><text x="36" y="228" font-family="JetBrains Mono, monospace" font-size="22" font-weight="700" fill="#E4F56A" text-anchor="start" letter-spacing="2">TAB·7K4Q</text><g id="Button/lime"><rect x="212" y="196" width="112" height="48" rx="24.0" fill="#E4F56A"/><text x="268.0" y="225.25" font-family="DM Sans, sans-serif" font-size="15" font-weight="700" fill="#0B3B2C" text-anchor="middle">Mostrar</text></g></g><g id="Canje pendiente"><rect x="20" y="268" width="320" height="72" rx="20" fill="#FFF3D6"/><rect x="32" y="280" width="48" height="48" rx="16" fill="#FFFFFF"/><g transform="translate(44.0 292.0) scale(1.0000)" fill="none" stroke="#C98A12" stroke-width="2" stroke-linecap="round" stroke-linejoin="round"><circle cx="12" cy="12" r="8.5"/><path d="M12 7.5V12l3 2"/></g><text x="92" y="299" font-family="DM Sans, sans-serif" font-size="15" font-weight="700" fill="#16211C" text-anchor="start">Cucurucho doble</text><text x="92" y="319" font-family="DM Sans, sans-serif" font-size="12" font-weight="500" fill="#6B4A0E" text-anchor="start">Pendiente · se confirma al conectarte</text></g><text x="20" y="380" font-family="DM Sans, sans-serif" font-size="12" font-weight="800" fill="#5F6B64" text-anchor="start" letter-spacing="1">ANTERIORES</text><g id="Reward row/Bosque Libros"><rect x="32" y="404.0" width="48" height="48" rx="16" fill="#FFEBC2"/><g transform="translate(44.0 416.0) scale(1.0000)" fill="none" stroke="#6B4A0E" stroke-width="2" stroke-linecap="round" stroke-linejoin="round"><path d="M5 19.5v-14A2.5 2.5 0 0 1 7.5 3H19v14H7.5A2.5 2.5 0 0 0 5 19.5 2.5 2.5 0 0 0 7.5 22H19"/></g><text x="92" y="425.0" font-family="DM Sans, sans-serif" font-size="15" font-weight="700" fill="#16211C" text-anchor="start">15% off en libros</text><text x="92" y="444.0" font-family="DM Sans, sans-serif" font-size="13" font-weight="400" fill="#5F6B64" text-anchor="start">Usado · 12 sep</text><g id="Chip"><rect x="282.4" y="414" width="57.6" height="28" rx="14.0" fill="#ECE6DA"/><text x="294.4" y="432.2" font-family="DM Sans, sans-serif" font-size="12" font-weight="700" fill="#5F6B64" text-anchor="start">Usado</text></g><line x1="92" y1="464" x2="340" y2="464" stroke="#E7E1D6" stroke-width="1" stroke-linecap="round"/></g><g id="Reward row/Panadería Lupa"><rect x="32" y="476.0" width="48" height="48" rx="16" fill="#ECE3FF"/><g transform="translate(44.0 488.0) scale(1.0000)" fill="none" stroke="#4B2E83" stroke-width="2" stroke-linecap="round" stroke-linejoin="round"><path d="M5 8h14l-1.2 12H6.2z"/><path d="M9 8V6.5a3 3 0 0 1 6 0V8"/></g><text x="92" y="497.0" font-family="DM Sans, sans-serif" font-size="15" font-weight="700" fill="#16211C" text-anchor="start">Pan de masa madre</text><text x="92" y="516.0" font-family="DM Sans, sans-serif" font-size="13" font-weight="400" fill="#5F6B64" text-anchor="start">Usado · 3 sep</text><g id="Chip"><rect x="282.4" y="486" width="57.6" height="28" rx="14.0" fill="#ECE6DA"/><text x="294.4" y="504.2" font-family="DM Sans, sans-serif" font-size="12" font-weight="700" fill="#5F6B64" text-anchor="start">Usado</text></g><line x1="92" y1="536" x2="340" y2="536" stroke="#E7E1D6" stroke-width="1" stroke-linecap="round"/></g><g id="Reward row/Estudio Prana"><rect x="32" y="548.0" width="48" height="48" rx="16" fill="#DDF2E6"/><g transform="translate(44.0 560.0) scale(1.0000)" fill="none" stroke="#136B4A" stroke-width="2" stroke-linecap="round" stroke-linejoin="round"><path d="M5 19C5 10 11 5 20 4c0 9-5 15-13.5 15z"/><path d="M5 19l8-8"/></g><text x="92" y="569.0" font-family="DM Sans, sans-serif" font-size="15" font-weight="700" fill="#16211C" text-anchor="start">Clase de yoga</text><text x="92" y="588.0" font-family="DM Sans, sans-serif" font-size="13" font-weight="400" fill="#5F6B64" text-anchor="start">Sin stock · 28 ago</text><g id="Chip"><rect x="262.24" y="558" width="77.76" height="28" rx="14.0" fill="#DDF2E6"/><text x="274.24" y="576.2" font-family="DM Sans, sans-serif" font-size="12" font-weight="700" fill="#136B4A" text-anchor="start">Devuelto</text></g><line x1="92" y1="608" x2="340" y2="608" stroke="#E7E1D6" stroke-width="1" stroke-linecap="round"/></g><rect x="140" y="788" width="80" height="4" rx="2" fill="#16211C" opacity="0.35"/></svg>